<svg width="2797" height="2797" viewBox="0 0 2797 2797" fill="none" xmlns="http://www.w3.org/2000/svg">
<circle cx="1398.5" cy="1398.5" r="1398.5" fill="white"/>
<path fill-rule="evenodd" clip-rule="evenodd" d="M1400.19 699.25C1466.25 699.511 1528.92 713.612 1585.85 738.94L956.022 2101.47H932.26C873.769 2101.47 817.889 2090.24 766.448 2070.4L1400.19 699.25ZM1365.21 700.791L737.733 2058.36C577.666 1984.46 466.167 1822.57 466.167 1634.04C466.167 1375.79 674.803 1166.63 932.268 1166.63C932.268 919.61 1123.41 718.025 1365.21 700.791ZM2078.86 1219.14L1670.99 2101.47H1508.05L1937.33 1172.66C1987.73 1180.75 2035.25 1196.42 2078.86 1219.14ZM1432.58 2101.47L1864.73 1166.65C1864.73 1079.18 1840.45 997.708 1798.67 927.728L1256.06 2101.47H1432.58ZM2025.32 2072.48L2302.11 1473.99C2320.39 1524.13 2330.83 1577.92 2330.83 1634.32C2330.83 1835.38 2203.67 2006.68 2025.32 2072.48ZM2248.05 1368.51C2220.37 1328.03 2186.17 1292.78 2147.52 1263.01L1760.02 2101.47H1864.73C1879.87 2101.47 1895.28 2100.69 1910.16 2099.12L2248.05 1368.51ZM1194.43 2101.47L1761.85 873.942C1724.25 827.201 1677.77 787.772 1625.02 758.266L1004.07 2101.47H1194.43Z" fill="#2222AF"/>
</svg>
